<?xml version="1.0" standalone="no"?>
<!DOCTYPE svg PUBLIC "-//W3C//DTD SVG 20010904//EN"
 "http://www.w3.org/TR/2001/REC-SVG-20010904/DTD/svg10.dtd">
<svg version="1.0" xmlns="http://www.w3.org/2000/svg"
 width="742.000000pt" height="743.000000pt" viewBox="0 0 742.000000 743.000000"
 preserveAspectRatio="xMidYMid meet">

<g transform="translate(0.000000,743.000000) scale(0.100000,-0.100000)"
fill="#007FFF" stroke="none">
<path d="M3645 6775 c-38 -8 -106 -19 -149 -25 -44 -6 -87 -15 -97 -20 -10 -6
-41 -15 -71 -21 -29 -6 -62 -18 -73 -25 -11 -8 -26 -14 -34 -14 -8 0 -34 -9
-58 -20 -24 -11 -64 -29 -90 -41 -27 -12 -73 -32 -103 -46 -170 -77 -239 -99
-355 -114 -54 -7 -131 -9 -193 -5 -124 8 -126 6 -91 -98 26 -79 51 -115 115
-164 40 -31 42 -36 31 -57 -24 -46 -189 -155 -255 -170 -62 -13 -63 -88 -3
-178 49 -72 97 -105 224 -156 17 -7 27 -18 27 -31 0 -27 -37 -114 -67 -160
-28 -42 -23 -48 69 -79 53 -18 82 -22 150 -19 45 2 103 11 128 20 25 9 70 24
100 33 49 15 113 44 218 99 17 10 32 21 32 26 0 9 31 23 37 16 3 -2 0 -13 -6
-24 -8 -15 -6 -23 9 -37 18 -16 38 -17 227 -13 201 6 322 22 426 58 15 6 42
15 60 21 111 38 329 176 373 237 10 14 20 8 79 -49 37 -35 75 -71 84 -79 30
-27 157 -110 169 -110 7 0 29 -9 49 -20 21 -11 45 -20 53 -20 9 0 40 -8 70
-19 74 -25 213 -37 227 -19 40 48 57 403 28 562 -19 100 -59 218 -87 255 -10
13 -18 27 -18 32 0 4 -10 19 -22 32 -13 13 -41 43 -64 68 -65 71 -163 157
-204 179 -13 7 -29 17 -34 21 -59 49 -279 149 -328 149 -13 0 -45 7 -73 16
-71 23 -412 29 -510 9z"/>
<path d="M2945 5071 c-45 -7 -85 -29 -85 -48 0 -26 42 -33 201 -31 181 2 230
-8 367 -73 62 -30 66 -31 79 -13 30 41 9 68 -92 112 -97 42 -201 62 -319 60
-61 0 -129 -4 -151 -7z"/>
<path d="M4245 5073 c-149 -32 -235 -65 -282 -109 -30 -28 -29 -40 3 -57 24
-13 32 -12 78 13 118 63 254 85 426 71 99 -8 106 -7 123 12 17 20 17 21 -1 40
-11 11 -39 23 -63 28 -45 8 -248 10 -284 2z"/>
<path d="M3169 4775 c-37 -20 -49 -62 -49 -167 0 -81 2 -91 25 -113 30 -30 73
-32 102 -5 27 25 38 91 29 178 -6 59 -10 70 -38 95 -37 31 -35 31 -69 12z"/>
<path d="M4252 4780 c-63 -26 -86 -228 -33 -284 27 -28 56 -33 95 -14 30 13
35 25 36 98 4 139 2 150 -31 181 -34 32 -34 32 -67 19z"/>
<path d="M4554 3189 c-9 -15 5 -161 21 -217 27 -92 49 -239 52 -357 5 -146
-10 -192 -89 -270 -37 -36 -58 -70 -79 -123 -16 -40 -29 -81 -29 -91 0 -10 -7
-37 -15 -62 -8 -24 -19 -105 -24 -179 -10 -158 -13 -166 -146 -335 -20 -26
-146 -197 -163 -221 -33 -49 -103 -180 -108 -203 -4 -14 -13 -36 -21 -49 -38
-61 -39 -370 -3 -572 10 -58 24 -139 29 -180 6 -41 15 -97 20 -125 6 -27 13
-85 17 -127 l6 -78 1622 0 1622 0 -7 58 c-6 55 -20 120 -56 272 -8 36 -20 88
-25 115 -5 28 -18 76 -29 107 -10 32 -19 68 -19 80 0 13 -6 35 -14 50 -8 14
-17 46 -21 70 -4 24 -14 59 -22 78 -14 33 -29 122 -53 310 -24 185 -53 288
-123 429 -30 61 -147 178 -232 231 -38 25 -72 47 -75 51 -3 3 -36 23 -73 45
-37 21 -85 49 -105 61 -20 13 -50 30 -67 39 -16 8 -66 35 -110 60 -44 24 -134
71 -200 105 -66 33 -127 64 -135 69 -8 5 -28 15 -45 23 -27 12 -43 20 -95 48
-18 10 -207 101 -265 128 -110 52 -155 71 -164 71 -6 0 -25 9 -43 20 -18 11
-40 20 -48 20 -8 0 -26 9 -40 20 -14 11 -32 20 -41 20 -9 0 -26 9 -39 20 -13
11 -28 20 -35 20 -25 0 -116 95 -125 130 -14 57 -45 132 -73 177 -31 50 -125
146 -182 188 -22 17 -42 32 -45 35 -7 7 -88 50 -94 50 -3 0 -8 -5 -12 -11z"/>
<path d="M2855 3084 c-27 -7 -59 -18 -70 -23 -79 -37 -155 -76 -185 -94 -43
-27 -170 -146 -170 -160 0 -6 -6 -18 -14 -26 -17 -21 -59 -101 -91 -176 -15
-33 -33 -71 -41 -85 -8 -14 -18 -32 -20 -41 -3 -9 -15 -22 -27 -28 -12 -6 -29
-15 -37 -20 -25 -16 -103 -48 -145 -61 -22 -6 -53 -17 -70 -25 -16 -7 -46 -18
-65 -25 -19 -6 -64 -23 -100 -37 -36 -13 -81 -29 -100 -35 -19 -5 -46 -16 -60
-23 -14 -7 -61 -27 -105 -43 -44 -17 -93 -38 -110 -46 -16 -9 -34 -16 -39 -16
-17 0 -279 -132 -349 -175 -167 -104 -226 -184 -376 -508 -23 -48 -41 -90 -41
-94 0 -3 -8 -24 -19 -47 -26 -57 -54 -128 -86 -216 -15 -41 -33 -88 -40 -105
-35 -83 -65 -167 -65 -183 -1 -9 -9 -35 -20 -57 -11 -22 -19 -48 -20 -57 0 -9
-8 -36 -18 -60 -11 -24 -22 -60 -26 -80 -4 -20 -13 -50 -21 -65 -8 -15 -15
-35 -15 -43 0 -8 -12 -53 -26 -100 -29 -97 -57 -196 -71 -255 -6 -22 -14 -48
-18 -57 -7 -17 38 -18 858 -18 l866 0 6 58 c4 31 11 68 16 82 5 14 15 57 23
95 23 108 90 211 190 290 67 54 186 174 186 188 0 7 7 25 15 41 9 17 20 50 26
75 9 42 23 77 64 166 30 65 47 159 41 227 -5 52 -2 75 11 103 16 34 16 36 -4
57 -28 31 -61 144 -72 250 -14 120 4 418 30 517 10 41 19 86 19 100 1 14 9 44
20 66 11 22 19 45 20 50 1 28 133 128 184 141 32 8 133 104 156 150 8 16 22
40 32 53 10 13 18 32 18 43 0 10 7 29 14 41 8 12 20 58 26 102 6 44 13 99 17
121 4 34 1 46 -16 63 -11 11 -24 20 -28 20 -5 -1 -30 -8 -58 -15z"/>
</g>
</svg>
