<?xml version="1.0" standalone="no"?>
<!DOCTYPE svg PUBLIC "-//W3C//DTD SVG 20010904//EN"
 "http://www.w3.org/TR/2001/REC-SVG-20010904/DTD/svg10.dtd">
<svg version="1.0" xmlns="http://www.w3.org/2000/svg"
 width="260.000000pt" height="90.000000pt" viewBox="0 0 260.000000 90.000000"
 preserveAspectRatio="xMidYMid meet">

<g transform="translate(0.000000,90.000000) scale(0.100000,-0.100000)"
fill="#00009C" stroke="none">
<path d="M330 759 c0 -40 -15 -59 -46 -59 -27 0 -41 -17 -46 -55 -3 -28 -7
-30 -46 -33 -53 -4 -45 -22 9 -22 l40 0 -3 -62 -3 -63 -42 -3 c-57 -4 -55 -22
2 -22 l46 0 -3 -62 -3 -63 -42 -3 c-57 -4 -55 -22 2 -22 43 0 45 -1 45 -28 0
-33 24 -59 60 -64 22 -3 25 -9 28 -46 4 -52 22 -46 22 9 l0 39 60 0 c60 0 60
0 60 -29 0 -16 3 -38 8 -48 5 -13 8 -6 12 27 l5 45 63 3 62 3 0 -40 c0 -22 5
-43 10 -46 6 -4 10 6 10 24 0 44 10 61 35 61 27 0 52 26 57 60 3 22 9 25 46
28 23 2 42 7 42 12 0 5 -19 10 -42 12 l-43 3 -3 63 -3 62 46 0 c57 0 59 18 3
22 l-43 3 -3 63 -3 62 40 0 c54 0 62 18 9 22 -40 3 -43 5 -46 35 -4 38 -17 50
-57 55 -27 3 -30 7 -36 48 -5 47 -16 39 -21 -15 -3 -30 -4 -30 -63 -30 l-60 0
-3 43 c-4 52 -22 46 -22 -9 l0 -39 -60 0 c-41 0 -60 4 -61 13 -1 6 -2 24 -3
39 -2 40 -16 46 -16 7z m378 -298 c2 -149 -1 -218 -9 -227 -15 -19 -409 -20
-427 -2 -13 13 -18 429 -5 442 4 3 104 5 222 4 l216 -3 3 -214z"/>
<path d="M317 624 c-4 -4 -7 -83 -7 -176 l0 -168 175 0 175 0 -2 173 -3 172
-166 3 c-91 1 -168 -1 -172 -4z m321 -171 l3 -153 -156 0 -155 0 0 155 0 156
153 -3 152 -3 3 -152z"/>
<path d="M377 563 c-11 -10 -8 -73 3 -73 6 0 10 18 10 40 0 41 -2 45 -13 33z"/>
<path d="M490 531 c0 -23 5 -41 10 -41 6 0 10 15 10 34 0 19 -4 38 -10 41 -6
4 -10 -10 -10 -34z"/>
<path d="M430 525 c0 -19 5 -35 10 -35 6 0 10 16 10 35 0 19 -4 35 -10 35 -5
0 -10 -16 -10 -35z"/>
<path d="M467 414 c-4 -4 -7 -22 -7 -41 l0 -33 71 0 70 0 -3 38 -3 37 -60 3
c-34 2 -64 0 -68 -4z m111 -31 c-2 -14 -14 -18 -51 -20 -32 -1 -47 2 -47 11 0
21 11 26 57 26 37 0 44 -3 41 -17z"/>
<path d="M1050 660 c0 -16 -7 -20 -35 -20 -24 0 -35 -5 -35 -15 0 -11 11 -15
36 -15 28 0 35 -3 32 -17 -2 -10 -9 -19 -16 -19 -6 -1 -16 -2 -22 -3 -6 0 -10
-30 -10 -66 0 -63 1 -65 25 -65 41 0 31 -28 -12 -32 -50 -4 -55 -26 -6 -30
l38 -3 3 -58 c4 -77 26 -72 30 6 3 56 4 57 32 57 20 0 30 5 30 15 0 10 -10 15
-30 15 -20 0 -30 5 -30 15 0 8 9 15 19 15 23 0 31 19 31 75 0 39 -23 78 -39
66 -3 -3 -7 3 -9 12 -2 11 6 17 30 19 42 4 43 22 2 26 -22 2 -34 9 -37 23 -7
25 -27 25 -27 -1z m45 -125 c0 -5 -15 -9 -32 -10 -21 -1 -33 3 -33 12 0 9 10
12 33 9 17 -2 32 -7 32 -11z m0 -51 c0 -5 -15 -10 -32 -12 -24 -2 -33 1 -33
12 0 10 9 14 33 12 17 -1 32 -7 32 -12z"/>
<path d="M1374 645 c-7 -19 -14 -37 -14 -40 0 -10 110 0 113 10 1 6 -14 11
-34 13 -32 3 -36 6 -31 28 7 37 -17 29 -34 -11z"/>
<path d="M1807 673 c-4 -3 -7 -17 -7 -29 0 -17 -7 -23 -25 -26 -35 -4 -36 -22
-3 -26 l28 -3 2 -161 c2 -118 6 -162 16 -166 9 -3 12 34 12 162 l0 166 30 0
c20 0 30 5 30 15 0 10 -10 15 -30 15 -27 0 -30 3 -30 30 0 29 -9 38 -23 23z"/>
<path d="M1522 603 l3 -68 70 0 70 0 0 65 0 65 -73 3 -73 3 3 -68z m116 25
c-3 -8 -21 -13 -43 -13 -22 0 -40 5 -42 13 -3 8 9 12 42 12 33 0 45 -4 43 -12z
m0 -50 c-3 -7 -23 -14 -46 -16 -33 -2 -42 0 -42 12 0 12 11 16 46 16 32 0 44
-4 42 -12z"/>
<path d="M2137 636 c-8 -19 -13 -37 -10 -40 4 -3 31 -6 60 -6 l55 0 -7 -32
c-11 -55 -26 -98 -34 -98 -5 0 -15 24 -23 53 -8 28 -19 52 -24 52 -18 0 -15
-35 9 -94 l25 -61 -39 -64 c-43 -72 -45 -76 -26 -76 7 0 28 24 47 54 l34 54
44 -38 c45 -40 115 -70 165 -70 44 0 28 23 -22 32 -51 9 -122 48 -149 83 -19
24 -19 25 4 106 13 45 24 92 24 105 0 22 -4 24 -55 24 -51 0 -55 1 -46 19 10
17 6 31 -9 31 -3 0 -14 -15 -23 -34z"/>
<path d="M2312 508 c2 -118 6 -162 16 -166 9 -3 12 34 12 162 0 142 -2 166
-15 166 -13 0 -15 -22 -13 -162z"/>
<path d="M1175 648 c-2 -7 -6 -67 -9 -133 -3 -66 -12 -147 -20 -180 -9 -35
-11 -64 -6 -69 13 -13 28 27 43 109 l13 70 35 0 34 0 5 -89 c3 -59 9 -91 18
-94 9 -3 12 41 12 197 l0 201 -60 0 c-40 0 -62 -4 -65 -12z m95 -48 c0 -28 -3
-30 -35 -30 -32 0 -35 2 -35 30 0 28 3 30 35 30 32 0 35 -2 35 -30z m-2 -92
c-3 -29 -6 -33 -33 -33 -27 0 -30 4 -33 33 -3 31 -2 32 33 32 35 0 36 -1 33
-32z"/>
<path d="M1919 649 c-6 -3 -8 -84 -7 -190 l3 -184 70 0 70 0 3 188 c1 103 -1
187 -5 188 -54 3 -127 3 -134 -2z m109 -61 l3 -38 -45 0 c-45 0 -46 0 -46 33
0 42 2 44 48 43 35 -1 37 -3 40 -38z m2 -103 c0 -35 0 -35 -45 -35 -45 0 -45
0 -45 35 0 35 0 35 45 35 45 0 45 0 45 -35z m0 -125 l0 -60 -45 0 -45 0 0 60
0 60 45 0 45 0 0 -60z"/>
<path d="M2370 579 c0 -20 41 -153 51 -163 5 -6 10 -4 14 5 7 19 -38 162 -53
167 -6 2 -12 -2 -12 -9z"/>
<path d="M1766 559 c-2 -8 -9 -66 -15 -129 -6 -63 -12 -124 -14 -134 -3 -27
19 -31 27 -4 3 13 11 76 18 141 8 88 9 120 0 129 -8 8 -12 8 -16 -3z"/>
<path d="M1856 563 c-3 -3 -6 -55 -6 -115 0 -89 3 -108 15 -108 12 0 15 19 15
109 0 100 -6 131 -24 114z"/>
<path d="M1362 538 c3 -7 13 -14 24 -16 16 -2 19 -9 16 -38 -3 -23 -9 -34 -17
-31 -17 7 -39 -9 -31 -22 4 -6 16 -11 26 -11 14 0 21 -9 25 -37 9 -53 35 -123
46 -123 12 0 11 9 -6 77 -20 76 -19 81 12 85 36 4 41 26 6 30 -23 2 -29 8 -31
36 -3 27 0 32 17 32 12 0 21 7 21 15 0 12 -13 15 -56 15 -40 0 -55 -4 -52 -12z"/>
<path d="M1492 505 c-13 -28 -9 -31 36 -37 23 -3 23 -4 -12 -52 -32 -45 -37
-66 -17 -66 4 0 26 27 49 60 28 40 50 60 63 60 23 0 25 5 -43 -99 -53 -80 -60
-96 -40 -96 6 0 39 41 72 90 l60 90 0 -98 c0 -75 3 -98 13 -94 9 3 12 35 12
118 l0 114 -83 5 c-45 3 -82 9 -81 15 2 21 -18 14 -29 -10z"/>
</g>
</svg>
